Table 專案 {
  專案ID integer [pk] // project_id
  專案名稱 varchar // project_name
  建立時間 datetime // created_at
}

Table 使用者 {
  使用者ID integer [pk] // user_id
  LINE_ID text // line_id
  姓名 varchar // name
  信箱 varchar // email
  公司名稱 varchar // company_name
  建立時間 datetime // created_at
}

Table 權限 {
  權限ID integer [pk] // project_user_id
  專案ID integer [ref: > 專案.專案ID] // project_id
  信箱 varchar // user_email
  角色 varchar // user_role
}

Table 底圖 {
  底圖ID integer [pk] // base_map_id
  專案ID integer [ref: > 專案.專案ID] // project_id
  名稱 varchar // map_name
  檔案路徑 varchar // file_path
}

Table 廠商 {
  廠商ID integer [pk] // vendor_id
  廠商名稱 varchar // vendor_name
  聯絡人 varchar // contact_person
  電話 varchar // phone
  負責項目 text // responsibilities
}

Table 缺失分類 {
  分類ID integer [pk] // defect_category_id
  分類名稱 varchar // category_name
  分類說明 text // description
}

Table 缺失單 {
  缺失單ID integer [pk] // defect_id
  專案ID integer [ref: > 專案.專案ID] // project_id
  填報者ID integer [ref: > 使用者.使用者ID] // submitted_id
  缺失分類ID integer [ref: > 缺失分類.分類ID] // defect_category_id
  缺失說明 text // defect_description
  指派廠商ID integer [ref: > 廠商.廠商ID] // assigned_vendor_id
  修繕說明 text // repair_description
  修繕天數 integer // expected_completion_day
  責任廠商ID integer [ref: > 廠商.廠商ID] // responsible_vendor_id
  前置缺失單ID integer [ref: > 缺失單.缺失單ID] // previous_defect_id
  建立時間 datetime // created_at 等待中、改善中、待確認、已完成、退件
  狀態 varchar // status
}

Table 改善單 {
  改善單ID integer [pk] // improvement_id
  缺失單ID integer [ref: > 缺失單.缺失單ID] // defect_id
  改善者ID integer [ref: > 使用者.使用者ID] // submitter_id
  改善說明 text // improvement_description
  建立時間 datetime // created_at
}

Table 確認單{
  確認單ID integer [pk] // confirmation_id
  改善單ID integer [ref: > 改善單.改善單ID] // improvement_id
  確認者ID integer [ref: > 使用者.使用者ID] // confirmer_id
  確認時間 datetime // confirmation_time
  審查理由 text // review_reason
  狀態 varchar // status 通過、退回、未確認
}

Table 缺失標記 {
  標記ID integer [pk] // defect_mark_id
  缺失單ID integer [ref: > 缺失單.缺失單ID] // defect_form_id
  底圖ID integer [ref: > 底圖.底圖ID] // base_map_id
  座標X float // coordinate_x
  座標Y float // coordinate_y
  座標比例 float // scale
}

Table 照片 {
  照片ID integer [pk] // photo_id
  關聯類型 varchar // related_type -- '缺失單', '改善單', '確認單'
  關聯ID integer // related_id
  描述 text // description
  圖片連結 varchar // image_url
  建立時間 datetime // created_at
}